<?xml version="1.0" encoding="UTF-8"?>
<svg width="32" height="32" viewBox="0 0 32 32" fill="none" xmlns="http://www.w3.org/2000/svg">
  <defs>
    <!-- 几何处理类别渐变 -->
    <linearGradient id="bgGradient" x1="0%" y1="0%" x2="100%" y2="100%">
      <stop offset="0%" style="stop-color:#74b9ff;stop-opacity:1" />
      <stop offset="100%" style="stop-color:#0984e3;stop-opacity:1" />
    </linearGradient>
    
    <!-- 阴影滤镜 -->
    <filter id="softShadow" x="-50%" y="-50%" width="200%" height="200%">
      <feDropShadow dx="0" dy="1" stdDeviation="1.5" flood-color="#000000" flood-opacity="0.2"/>
    </filter>
  </defs>

  <!-- 背景 -->
  <rect x="0" y="0" width="32" height="32" rx="8" fill="url(#bgGradient)"/>

  <!-- 原始多边形区域 -->
  <path d="M5 9 L27 7 L29 18 L25 27 L7 29 L3 19 Z" fill="#ffffff" opacity="0.9" filter="url(#softShadow)"/>

  <!-- 分割线 (动态虚线) -->
  <path d="M12 5 L20 27" stroke="#74b9ff" stroke-width="2.5" stroke-dasharray="4,3" stroke-linecap="round"/>
  
  <!-- 分割后的区块标识 -->
  <!-- 左侧区块 -->
  <path d="M5 9 L12 7 L18 16 L7 29 L3 19 Z" fill="#fdcb6e" opacity="0.7"/>
  
  <!-- 右侧区块 -->
  <path d="M12 7 L27 7 L29 18 L25 27 L18 16 Z" fill="#00b894" opacity="0.7"/>

  <!-- 面积标识点 -->
  <circle cx="9" cy="18" r="1.5" fill="#ffffff" filter="url(#softShadow)"/>
  <text x="9" y="21" fill="#74b9ff" font-family="SF Pro, Arial, sans-serif" font-size="6" font-weight="bold" text-anchor="middle">A₁</text>
  
  <circle cx="23" cy="16" r="1.5" fill="#ffffff" filter="url(#softShadow)"/>
  <text x="23" y="19" fill="#74b9ff" font-family="SF Pro, Arial, sans-serif" font-size="6" font-weight="bold" text-anchor="middle">A₂</text>

  <!-- 切割工具图标 -->
  <circle cx="16" cy="4" r="3" fill="#ffffff" opacity="0.95" filter="url(#softShadow)"/>
  <g transform="translate(16,4)">
    <!-- 剪刀刀片 -->
    <path d="M-1.5 -1 L1.5 1 M1.5 -1 L-1.5 1" stroke="#74b9ff" stroke-width="1.2" stroke-linecap="round"/>
    <!-- 剪刀把手 -->
    <circle cx="-1" cy="-1" r="0.8" fill="none" stroke="#74b9ff" stroke-width="0.8"/>
    <circle cx="1" cy="-1" r="0.8" fill="none" stroke="#74b9ff" stroke-width="0.8"/>
  </g>

  <!-- 动态预览指示器 -->
  <circle cx="28" cy="28" r="2" fill="#00b894" filter="url(#softShadow)"/>
  <path d="M27 28 L29 28 M28 27 L28 29" stroke="#ffffff" stroke-width="1" stroke-linecap="round"/>

  <!-- 装饰元素 -->
  <circle cx="4" cy="4" r="1" fill="#ffffff" opacity="0.3"/>
  <circle cx="28" cy="4" r="1" fill="#ffffff" opacity="0.3"/>
</svg>