<svg xmlns="http://www.w3.org/2000/svg" viewBox="0 0 32 32">
<defs>
    <linearGradient id="glassFill" x1="3" y1="2" x2="29" y2="30" gradientUnits="userSpaceOnUse">
      <stop offset="0" stop-color="#FFFFFF" stop-opacity=".92"/>
      <stop offset=".58" stop-color="#F8FBFF" stop-opacity=".78"/>
      <stop offset="1" stop-color="#EDF4FB" stop-opacity=".68"/>
    </linearGradient>
    <linearGradient id="glassStroke" x1="2" y1="2" x2="30" y2="30" gradientUnits="userSpaceOnUse">
      <stop offset="0" stop-color="#FFFFFF" stop-opacity=".95"/>
      <stop offset="1" stop-color="#C3D2E3" stop-opacity=".74"/>
    </linearGradient>
    <linearGradient id="blueGrad" x1="0" y1="6" x2="0" y2="26" gradientUnits="userSpaceOnUse">
      <stop offset="0" stop-color="#D7EEFF"/>
      <stop offset="1" stop-color="#8BC1F4"/>
    </linearGradient>
    <linearGradient id="greenGrad" x1="0" y1="6" x2="0" y2="26" gradientUnits="userSpaceOnUse">
      <stop offset="0" stop-color="#DCF3D3"/>
      <stop offset="1" stop-color="#8ECF7A"/>
    </linearGradient>
    <linearGradient id="amberGrad" x1="0" y1="6" x2="0" y2="26" gradientUnits="userSpaceOnUse">
      <stop offset="0" stop-color="#FFE5B7"/>
      <stop offset="1" stop-color="#F2B44C"/>
    </linearGradient>
    <linearGradient id="tealGrad" x1="0" y1="6" x2="0" y2="26" gradientUnits="userSpaceOnUse">
      <stop offset="0" stop-color="#D3F4F0"/>
      <stop offset="1" stop-color="#76D0C1"/>
    </linearGradient>
    <linearGradient id="redGrad" x1="0" y1="6" x2="0" y2="26" gradientUnits="userSpaceOnUse">
      <stop offset="0" stop-color="#FFD6D6"/>
      <stop offset="1" stop-color="#EE8A84"/>
    </linearGradient>
    <linearGradient id="violetGrad" x1="0" y1="6" x2="0" y2="26" gradientUnits="userSpaceOnUse">
      <stop offset="0" stop-color="#E1DAFF"/>
      <stop offset="1" stop-color="#AB97EC"/>
    </linearGradient>
    <linearGradient id="grayGrad" x1="0" y1="6" x2="0" y2="26" gradientUnits="userSpaceOnUse">
      <stop offset="0" stop-color="#F3F6FA"/>
      <stop offset="1" stop-color="#D3DCE6"/>
    </linearGradient>
    <linearGradient id="skyGrad" x1="0" y1="0" x2="0" y2="12" gradientUnits="userSpaceOnUse">
      <stop offset="0" stop-color="#DFF2FF"/>
      <stop offset="1" stop-color="#A5D1F8"/>
    </linearGradient>
    <linearGradient id="groundGrad" x1="0" y1="12" x2="0" y2="24" gradientUnits="userSpaceOnUse">
      <stop offset="0" stop-color="#DFF4D6"/>
      <stop offset="1" stop-color="#90C97E"/>
    </linearGradient>
    <linearGradient id="dbTopGrad" x1="0" y1="8" x2="0" y2="18" gradientUnits="userSpaceOnUse">
      <stop offset="0" stop-color="#AEE8C8"/>
      <stop offset="1" stop-color="#5ABA83"/>
    </linearGradient>
    <linearGradient id="dbSideGrad" x1="0" y1="10" x2="0" y2="22" gradientUnits="userSpaceOnUse">
      <stop offset="0" stop-color="#62BE87"/>
      <stop offset="1" stop-color="#2E8B57"/>
    </linearGradient>
    <filter id="glassShadow" x="-20%" y="-20%" width="140%" height="160%">
      <feDropShadow dx="0" dy="1.1" stdDeviation="1.2" flood-color="#5879A0" flood-opacity=".12"/>
    </filter>
  </defs>

  <g filter="url(#glassShadow)">
    <rect x="1.5" y="1.5" width="29" height="29" rx="8" fill="url(#glassFill)" stroke="url(#glassStroke)" stroke-width="1"/>
    <path d="M5 6.2h22" stroke="#FFFFFF" stroke-width="1.2" stroke-linecap="round" opacity=".86"/>
    <path d="M6.5 25.7h19" stroke="#D9E6F2" stroke-width="1" stroke-linecap="round" opacity=".34"/>
    <path d="M4.2 4.8h9.5" stroke="#FFFFFF" stroke-width=".9" stroke-linecap="round" opacity=".8"/>
  </g>
<path d="M5.5 11.0h7.6l2 2v7.199999999999999l-2 2H7.5l-2-2V13.0z" fill="#FFFFFF" stroke="#5C7B92" stroke-width="1"/><path d="M5.5 11.0h7.6l2 2v2.2H5.5z" fill="#EEF6FF"/><rect x="6.1" y="14.2" width="8.4" height="5.3999999999999995" fill="url(#blueGrad)" rx=".7"/><path d="M6.8 16.5h7.0v3.999999999999999H6.8z" fill="#F7FBFF" opacity=".78"/><path d="M6.8 19.0h7.0M6.8 21.4h7.0M6.8 23.8h7.0" stroke="#9CB7D5" stroke-width=".75" stroke-linecap="round"/><path d="M9.5 16.5v3.999999999999999M12.2 16.5v3.999999999999999" stroke="#9CB7D5" stroke-width=".72" stroke-linecap="round"/><path d="M8.3 8.3h7.6l2 2v7.199999999999999l-2 2H10.3l-2-2V10.3z" fill="#FFFFFF" stroke="#5C7B92" stroke-width="1"/><path d="M8.3 8.3h7.6l2 2v2.2H8.3z" fill="#F1FBEA"/><rect x="8.9" y="11.5" width="8.4" height="5.3999999999999995" fill="url(#greenGrad)" rx=".7"/><path d="M10.100000000000001 14.5h6.0M10.100000000000001 17.1h6.0M10.100000000000001 19.700000000000003h4.3999999999999995" stroke="#F7FBFF" stroke-width=".95" stroke-linecap="round"/><circle cx="9.9" cy="9.9" r=".55" fill="#97BDE6"/><circle cx="11.600000000000001" cy="9.9" r=".55" fill="#97BDE6"/><path d="M11.1 5.6h7.6l2 2v7.199999999999999l-2 2H13.1l-2-2V7.6z" fill="#FFFFFF" stroke="#5C7B92" stroke-width="1"/><path d="M11.1 5.6h7.6l2 2v2.2H11.1z" fill="#FFF5DE"/><rect x="11.7" y="8.8" width="8.4" height="5.3999999999999995" fill="url(#amberGrad)" rx=".7"/><rect x="12.2" y="10.1" width="7.3999999999999995" height="4.3999999999999995" fill="url(#skyGrad)" rx=".6"/><path d="M12.2 16.1h7.3999999999999995v3.1999999999999993H12.2z" fill="url(#groundGrad)"/><path d="M13.2 17.2l1.8-1.6 1.7 1.1 2.2-2.7 2.1 1.8 1.4-1.1" fill="none" stroke="#4E86CC" stroke-width="1" stroke-linecap="round" stroke-linejoin="round"/><circle cx="23.8" cy="20.8" r="4.2" fill="url(#greenGrad)" stroke="#4C9A61" stroke-width="1"/><path d="M23.8 19.0v3.6M22.0 20.8h3.6" stroke="#FFFFFF" stroke-width="1.4" stroke-linecap="round"/>
</svg>
