<?xml version="1.0" encoding="UTF-8"?>
<svg width="32" height="32" viewBox="0 0 32 32" fill="none" xmlns="http://www.w3.org/2000/svg">
  <defs>
    <!-- 统一蓝色渐变 -->
    <linearGradient id="bgGradient" x1="0%" y1="0%" x2="100%" y2="100%">
      <stop offset="0%" style="stop-color:#4facfe;stop-opacity:1" />
      <stop offset="100%" style="stop-color:#00f2fe;stop-opacity:1" />
    </linearGradient>
  </defs>

  <!-- 背景 -->
  <rect x="0" y="0" width="32" height="32" rx="8" fill="url(#bgGradient)"/>

  <!-- 云朵 -->
  <path d="M8 12 Q8 8 12 8 Q16 6 20 8 Q24 8 24 12 Q26 12 26 16 Q26 18 24 18 L10 18 Q8 18 8 16 Q8 14 8 12 Z" fill="#ffffff" opacity="0.9"/>

  <!-- 下载箭头 -->
  <rect x="14" y="14" width="4" height="8" rx="2" fill="#00b894"/>
  <path d="M12 20 L16 24 L20 20 Z" fill="#00b894"/>

  <!-- 影像标识 -->
  <rect x="6" y="6" width="4" height="4" rx="1" fill="#ffffff" opacity="0.7"/>
  <rect x="22" y="6" width="4" height="4" rx="1" fill="#ffffff" opacity="0.7"/>
  <circle cx="8" cy="8" r="1" fill="#4facfe"/>
  <circle cx="24" cy="8" r="1" fill="#4facfe"/>
</svg>
